<svg xmlns="http://www.w3.org/2000/svg" xmlns:xlink="http://www.w3.org/1999/xlink" version="1.1" xml:space="preserve" width="37" height="34"><rect id="backgroundrect" width="100%" height="100%" x="0" y="0" fill="none" stroke="none"/><g class="currentLayer"><title>Layer 1</title><g id="svg_1" class=""><g id="svg_2"><g id="svg_3"><path d="M13.880700008392335,34.45940013656616 C12.943600008392334,34.45940013656616 12.008900008392335,34.085600136566164 11.319400008392336,33.34670013656616 L1.3181000083923342,22.627100136566163 C8.392333938900265e-9,21.21370013656616 0.07720000839233432,19.000400136566164 1.4914000083923344,17.682600136566162 C2.9052000083923346,16.365400136566162 5.120300008392334,16.442500136566164 6.4388000083923345,17.855900136566163 L16.440200008392335,28.575500136566163 C17.758200008392333,29.988800136566162 17.681100008392335,32.20170013656616 16.266800008392334,33.51940013656616 C15.592400008392335,34.14800013656616 14.735300008392333,34.45940013656616 13.880700008392335,34.45940013656616 z" fill="#000000" id="svg_4"/></g><g id="svg_5"><path d="M13.876800008392333,34.45940013656616 C13.180400008392333,34.45940013656616 12.477700008392333,34.25250013656616 11.865400008392335,33.82200013656616 C10.284100008392334,32.710200136566165 9.904600008392334,30.52770013656616 11.017100008392333,28.94740013656616 L30.01960000839233,1.9601001365661626 C31.132000008392332,0.38020013656616225 33.314900008392335,1.365661619345815e-7 34.89720000839233,1.1123001365661622 C36.47740000839234,2.224100136566162 36.85740000839233,4.406700136566162 35.744900008392335,5.986500136566162 L16.742500008392334,32.97470013656616 C16.061200008392333,33.94210013656616 14.977100008392334,34.45940013656616 13.876800008392333,34.45940013656616 z" fill="#000000" id="svg_6"/></g></g></g></g></svg>