<svg xmlns="http://www.w3.org/2000/svg" xmlns:xlink="http://www.w3.org/1999/xlink" version="1.1" enable-background="new 0 0 100 100" xml:space="preserve" width="66" height="86"><rect id="backgroundrect" width="100%" height="100%" x="0" y="0" fill="none" stroke="none"/><g class="currentLayer"><title>Layer 1</title><g id="svg_1" class=""><rect x="11.468999862670898" y="25.614999771118164" width="38.231998443603516" height="3.822999954223633" id="svg_2"/><rect x="11.468999862670898" y="40.90799903869629" width="38.231998443603516" height="3.822999954223633" id="svg_3"/><rect x="11.468999862670898" y="33.26199913024902" width="38.231998443603516" height="3.822999954223633" id="svg_4"/><rect x="11.468999862670898" y="48.553998947143555" width="38.231998443603516" height="3.822999954223633" id="svg_5"/><path d="M49.70099999999999,10.70500001525879 c0,-2.113 -1.7120000000000002,-3.824 -3.822,-3.824 h-7.647 v-3.058 c0,-2.111 -1.711,-3.823 -3.823,-3.823 h-7.646 c-2.113,0 -3.824,1.7120000000000002 -3.824,3.823 v3.058 h-7.646 c-2.112,0 -3.824,1.711 -3.824,3.824 v6.626 h38.232 V10.70500001525879 z" id="svg_6"/><polygon points="3.822999954223633,15.03700065612793 9.558000564575195,15.03700065612793 9.558000564575195,11.214000701904297 0,11.214000701904297 0,80.0319995880127 36.19200134277344,80.0319995880127 36.19200134277344,76.2080020904541 3.822999954223633,76.2080020904541 " id="svg_7"/><polygon points="57.3489990234375,55.43599891662598 61.1719970703125,55.43599891662598 61.1719970703125,11.214000701904297 51.612998962402344,11.214000701904297 51.612998962402344,15.03700065612793 57.3489990234375,15.03700065612793 " id="svg_8"/><polygon points="57.772003173828125,68.52099800109863 57.772003173828125,60.023996353149414 49.2760009765625,60.023996353149414 49.2760009765625,68.52099800109863 40.78099822998047,68.52099800109863 40.78099822998047,77.01700019836426 49.2760009765625,77.01700019836426 49.2760009765625,85.51200294494629 57.772003173828125,85.51200294494629 57.772003173828125,77.01700019836426 66.2699966430664,77.01700019836426 66.2699966430664,68.52099800109863 " id="svg_9"/><rect x="11.468999862670898" y="56.19999885559082" width="33.21900177001953" height="3.8239998817443848" id="svg_10"/><rect x="11.468999862670898" y="63.84800148010254" width="24.722999572753906" height="3.822000026702881" id="svg_11"/></g></g></svg>