<svg xmlns="http://www.w3.org/2000/svg" xmlns:xlink="http://www.w3.org/1999/xlink" version="1.1" enable-background="new 0 0 50 50" xml:space="preserve" width="33" height="47"><rect id="backgroundrect" width="100%" height="100%" x="0" y="0" fill="none" stroke="none"/><g class="currentLayer"><title>Layer 1</title><g id="svg_1" class=""><path d="M28.156997261047366,19.706000247955323 c0.04200000000000001,-0.05200000000000001 0.08100000000000002,-0.10200000000000001 0.11100000000000002,-0.15300000000000002 l3.577,-4.8 c1.23,-1.6510000000000002 1.018,-3.952 -0.49200000000000005,-5.356 c-2.247,-2.079 -4.9030000000000005,-3.549 -7.941,-4.389 V4.025000247955322 c0,-2.221 -1.7970000000000002,-4.025 -4.024,-4.025 h-4.249 c-2.221,0 -4.025,1.804 -4.025,4.025 v0.9430000000000001 c-5.875,1.854 -9.73,6.571 -9.73,12.356 c0,4.2780000000000005 1.7530000000000001,7.126 4.025,9.049 c-0.28800000000000003,0.22900000000000004 -0.543,0.503 -0.7550000000000001,0.809 l-3.534,5.024 c-1.12,1.6 -0.931,3.7800000000000002 0.44800000000000006,5.158 c2.617,2.615 5.817,4.38 9.546,5.284 v0.6480000000000001 c0,2.224 1.804,4.023 4.025,4.023 h4.249 c2.228,0 4.024,-1.8 4.024,-4.023 v-0.774 c6.155,-1.8410000000000002 9.959,-6.6240000000000006 9.959,-12.89 C33.36999726104737,24.689000247955324 30.983997261047364,21.633000247955323 28.156997261047366,19.706000247955323 zM19.390997261047364,39.22900024795532 v4.07 h-4.249 v-4.07 c-4.751,-0.40800000000000003 -8.234,-2.218 -10.726,-4.706 l3.529,-5.023 c1.6750000000000003,1.7640000000000002 4.167,3.349 7.197,3.891 v-7.01 c-4.666,-1.133 -9.731,-2.896 -9.731,-9.053 c0,-4.57 3.619,-8.461 9.731,-9.095 V4.0280002479553225 h4.253 v4.3 c3.6590000000000003,0.405 6.787,1.7610000000000001 9.227,4.024 l-3.576,4.8 c-1.622,-1.494 -3.615,-2.4450000000000003 -5.65,-2.943 v6.24 c4.708,1.176 9.954,2.987 9.954,9.184 C29.346997261047363,34.660000247955324 26.040997261047366,38.54800024795532 19.390997261047364,39.22900024795532 z" id="svg_2"/><path d="M12.017997261047363,16.833000247955322 c0,1.308 1.264,1.992 3.124,2.577 v-5.474 C13.147997261047362,14.208000247955322 12.017997261047363,15.292000247955322 12.017997261047363,16.833000247955322 z" id="svg_3"/><path d="M19.390997261047364,27.42200024795532 v6.06 c2.311,-0.452 3.398,-1.766 3.398,-3.21 C22.785997261047363,28.77700024795532 21.382997261047365,28.054000247955322 19.390997261047364,27.42200024795532 z" id="svg_4"/></g></g></svg>