<svg xmlns="http://www.w3.org/2000/svg" xmlns:xlink="http://www.w3.org/1999/xlink" version="1.1" enable-background="new 0 0 100 100" xml:space="preserve" width="90" height="81"><rect id="backgroundrect" width="100%" height="100%" x="0" y="0" fill="none" stroke="none"/><g class="currentLayer"><title>Layer 1</title><g id="svg_1" class=""><g id="svg_2"><g id="svg_3"><path fill="#000000" d="M44.80000004768372,0 L4.7683715642676816e-8,80.6 h90 L44.80000004768372,0 zM45.00000004768371,72.6 c-3,0 -5.5,-2.5 -5.5,-5.5 s2.5,-5.5 5.5,-5.5 c3,0 5.5,2.5 5.5,5.5 S48.00000004768371,72.6 45.00000004768371,72.6 zM49.30000004768372,55 c-0.30000000000000004,2.1 -2.2,3.7 -4.4,3.7 h-0.1 c-2.2,0 -4,-1.6 -4.4,-3.7 L37.200000047683716,33.8 c-0.7000000000000001,-4.7 2.9,-8.9 7.6,-8.9 h0.2 c4.7,0 8.4,4.2 7.6,8.9 L49.30000004768372,55 z" id="svg_4"/></g></g></g></g></svg>