<svg xmlns="http://www.w3.org/2000/svg" xmlns:xlink="http://www.w3.org/1999/xlink" version="1.1" enable-background="new 0 0 100 100" xml:space="preserve" width="76" height="49"><rect id="backgroundrect" width="100%" height="100%" x="0" y="0" fill="none" stroke="none" class=""/><g class="currentLayer"><title>Layer 1</title><g id="svg_1" class=""><path fill="none" stroke="#000000" stroke-width="6.057" stroke-miterlimit="10" d="M75.5,31.09599951171875 c0,0 -16.901,17.629 -37.75,17.629 S0,31.09599951171875 0,31.09599951171875 S16.901,13.466999511718747 37.75,13.466999511718747 S75.5,31.09599951171875 75.5,31.09599951171875 z" id="svg_2"/><path d="M37.75,14.000999511718753 c-9.703,0 -17.569,7.6530000000000005 -17.569,17.094 S28.046999999999997,48.18999951171875 37.75,48.18999951171875 s17.569,-7.6530000000000005 17.569,-17.094 S47.453,14.000999511718753 37.75,14.000999511718753 zM47.247,27.118999511718748 c-1.115,0 -2.018,-0.904 -2.018,-2.018 c0,-1.115 0.904,-2.018 2.018,-2.018 c1.115,0 2.018,0.904 2.018,2.018 C49.265,26.21499951171875 48.361,27.118999511718748 47.247,27.118999511718748 z" id="svg_3"/><line fill="none" stroke="#000000" stroke-width="6.381" stroke-miterlimit="10" x1="13.21299934387207" y1="20.945999145507812" x2="5.341999053955078" y2="10.9739990234375" id="svg_4"/><line fill="none" stroke="#000000" stroke-width="6.381" stroke-miterlimit="10" x1="27.612998962402344" y1="12.77499771118164" x2="24.676998138427734" y2="0.4160003662109375" id="svg_5"/><line fill="none" stroke="#000000" stroke-width="6.381" stroke-miterlimit="10" x1="47.374000549316406" y1="12.568000793457031" x2="49.2239990234375" y2="0" id="svg_6"/><line fill="none" stroke="#000000" stroke-width="6.381" stroke-miterlimit="10" x1="63.555999755859375" y1="20.281997680664062" x2="70.52899932861328" y2="9.663997650146484" id="svg_7"/></g></g></svg>