<svg xmlns="http://www.w3.org/2000/svg" xmlns:xlink="http://www.w3.org/1999/xlink" version="1.1" enable-background="new 36.25 0 100 100" xml:space="preserve" width="58" height="79"><rect id="backgroundrect" width="100%" height="100%" x="0" y="0" fill="none" stroke="none" class=""/><g class="currentLayer"><title>Layer 1</title><g id="svg_1" class=""><rect x="0" y="23.576000213623047" width="26.05900001525879" height="25.21299934387207" id="svg_2"/><rect x="32.218997955322266" y="23.57699966430664" width="26.059999465942383" height="25.21500015258789" id="svg_3"/><rect x="0" y="53.57600021362305" width="26.05900001525879" height="25.21500015258789" id="svg_4"/><rect x="32.21999740600586" y="53.57600021362305" width="26.05900001525879" height="25.21500015258789" id="svg_5"/><path d="M29.136999725341795,22.192000518798828 l0.6440000000000001,-3.063 c0.04200000000000001,-0.203 1.049,-4.991 1.786,-7.709 c1.7040000000000002,-6.276 4.957,-9.995 9.669,-11.053 c1.082,-0.24300000000000002 2.13,-0.36700000000000005 3.115,-0.36700000000000005 c4.678,0 7.977,2.7430000000000003 9.052,7.525 c1.272,5.672000000000001 -2.194,10.299 -8.832,11.791 c-2.5380000000000003,0.5700000000000001 -11.952,2.254 -12.352,2.326 L29.136999725341795,22.192000518798828 zM44.350999725341794,4.2250005187988275 c-0.6750000000000002,0 -1.4100000000000001,0.08900000000000002 -2.19,0.264 c-3.105,0.6980000000000002 -5.237,3.327 -6.517,8.038 c-0.33000000000000007,1.217 -0.7290000000000001,2.922 -1.059,4.396 c3.064,-0.558 7.507,-1.3780000000000001 9.06,-1.7280000000000002 c2.047,-0.459 6.692,-2.037 5.636,-6.743 C48.64199972534179,5.608000518798828 47.029999725341796,4.2250005187988275 44.350999725341794,4.2250005187988275 z" id="svg_6"/><path d="M26.055999725341792,21.642000518798827 c-0.4,-0.07200000000000001 -9.814,-1.7560000000000002 -12.352,-2.326 c-6.639,-1.491 -10.105,-6.119 -8.832,-11.791 c1.075,-4.782 4.374,-7.525 9.052,-7.525 c0.985,0 2.033,0.12400000000000001 3.115,0.36700000000000005 c4.712,1.058 7.965,4.777 9.668,11.053 c0.7380000000000001,2.718 1.7440000000000002,7.506 1.786,7.709 l0.6440000000000001,3.063 L26.055999725341792,21.642000518798827 zM8.994999725341799,8.45200051879883 c-1.058,4.706 3.589,6.283 5.636,6.743 c1.552,0.3490000000000001 5.995,1.17 9.06,1.7280000000000002 c-0.33100000000000007,-1.474 -0.7290000000000001,-3.178 -1.06,-4.396 c-1.278,-4.711 -3.41,-7.34 -6.517,-8.038 c-0.779,-0.17500000000000002 -1.516,-0.264 -2.189,-0.264 C11.245999725341804,4.2250005187988275 9.63299972534179,5.608000518798828 8.994999725341799,8.45200051879883 z" id="svg_7"/></g></g></svg>