<svg xmlns="http://www.w3.org/2000/svg" xmlns:xlink="http://www.w3.org/1999/xlink" version="1.1" enable-background="new 0 0 112 79.333" xml:space="preserve" width="122.86991882324219" height="75.74797058105469"><g class="currentLayer"><title>Layer 1</title><g class="" id="svg_2"><rect id="backgroundrect" width="104.0650405883789" height="78.04878234863281" x="0" y="-3.58502197265625" fill="none" stroke="none" class=""/><path d="M123.03250422228078,34.58397802734375 c-0.01600000000000003,-0.5700000000000006 -0.18800000000000028,-1.131 -0.508,-1.609 L105.28250422228079,7.1049780273437495 c-0.5680000000000006,-0.8450000000000006 -1.525,-1.357 -2.547,-1.357 H90.37450422228079 H79.4355042222808 H79.4315042222808 c-1.6870000000000007,0 -3.058,1.371 -3.058,3.062 v49.881 c0,1.6860000000000008 1.371,3.057 3.062,3.057 h6.271 h0.002000000000000004 c0,7.732 6.268,14 14,14 c7.731,0 13.998,-6.268 14,-14 h6.271 c1.6880000000000006,0 3.062,-1.371 3.062,-3.061 V34.67197802734375 C123.04050422228079,34.64297802734375 123.03450422228079,34.61297802734375 123.03250422228078,34.58397802734375 zM90.37450422228079,33.74797802734375 V15.07997802734375 h11.809 l12.445,18.668 H90.37450422228079 zM99.7065042222808,68.74797802734375 c-3.858,0 -7,-3.141 -7,-7 s3.142,-7 7,-7 c3.859,0 7,3.141 7,7 S103.5655042222808,68.74797802734375 99.7065042222808,68.74797802734375 zM67.64250422228079,-3.58502197265625 H15.105504222280793 C12.860504222280792,-3.58502197265625 11.041504222280793,-1.76602197265625 11.041504222280793,0.47897802734375006 v57.204 c0,2.244 1.819,4.064 4.063,4.064 h9.935 c0,7.732 6.268,14 14,14 s14,-6.268 14,-14 h14.603 c2.244,0 4.063,-1.82 4.063,-4.064 V0.4779780273437497 C71.70650422228078,-1.76602197265625 69.8885042222808,-3.58502197265625 67.64250422228079,-3.58502197265625 zM39.04050422228079,68.74797802734375 c-3.858,0 -7,-3.141 -7,-7 s3.142,-7 7,-7 c3.859,0 7,3.141 7,7 S42.8995042222808,68.74797802734375 39.04050422228079,68.74797802734375 z" id="svg_1" class=""/></g></g></svg>