<svg xmlns="http://www.w3.org/2000/svg" xmlns:xlink="http://www.w3.org/1999/xlink" version="1.1" style="enable-background:new -375 253.3 90 90;" xml:space="preserve" width="56" height="85"><rect id="backgroundrect" width="100%" height="100%" x="0" y="0" fill="none" stroke="none" class=""/><style type="text/css">
	.st0{fill:#FFFFFF;stroke:#231F20;stroke-width:1.826;stroke-miterlimit:10;}
	.st1{fill:#231F20;}
</style><g class="currentLayer"><title>Layer 1</title><g id="svg_1" class=""><path class="st0" d="M28.099997520446777,41.59999942779541 " id="svg_2"/><g id="svg_3"><path class="st1" d="M28.299997520446766,84.7999994277954 h-0.30000000000000016 c-16,0 -28,-12.1 -28,-28.2 c0,-11.1 3.5,-19.6 7.2,-28.5 c1.7000000000000002,-4.1 3.5,-8.4 5,-13.2 c4.4,-13.4 11.2,-14.9 15.9,-14.9 c4.7,0 11.5,1.5 15.9,14.9 c1.6,4.8 3.3,9.1 5,13.2 c3.7,8.9 7.2,17.4 7.2,28.5 C56.299997520446766,72.69999942779543 44.1999975204468,84.7999994277954 28.299997520446766,84.7999994277954 zM28.099997520446777,3.9999994277953874 c-2.6,0 -8.1,0 -12.1,12.2 c-1.6,5 -3.4,9.3 -5.2,13.5 c-3.7,8.9 -6.9,16.7 -6.9,27 c0,13.8 10.3,24.2 24,24.2 h0.30000000000000016 c13.7,0 24,-10.4 24,-24.2 c0,-10.3 -3.2,-18 -6.9,-27 c-1.7000000000000002,-4.2 -3.5,-8.5 -5.2,-13.5 C36.1999975204468,3.9999994277953874 30.6999975204468,3.9999994277953874 28.099997520446777,3.9999994277953874 z" id="svg_4"/></g><path class="st1" d="M28.099997520446777,33.7999994277954 c-8.4,0 -11.9,13.3 -11.9,17.7 c0,7.2 5.3,12.5 11.9,12.5 c6.6,0 11.9,-5.3 11.9,-12.5 C39.999997520446755,46.89999942779542 36.59999752044678,33.7999994277954 28.099997520446777,33.7999994277954 z" id="svg_5"/></g></g></svg>